<svg xmlns="http://www.w3.org/2000/svg"
viewBox="0 0 162.474 167.366"
 xmlns:xlink="http://www.w3.org/1999/xlink"
 xmlns:xodm="http://www.corel.com/coreldraw/odm/2003">
 <g>
  <metadata id="CorelCorpID_0Corel-Layer"/>
  <path fill="#388B69" d="M146.886 59.889c0.279,0.641 0.552,1.285 0.813,1.935l9.383 -3.765c-0.244,-0.656 -0.496,-1.309 -0.757,-1.958l6.149 -2.467c-13.55,-31.543 -44.898,-53.634 -81.406,-53.634l0 16.783 0 3.81c27.637,0 51.289,17.064 60.995,41.231l4.823 -1.935z"/>
  <path fill="#FECE3D" d="M15.364 86.298c0,-36.288 29.416,-65.705 65.704,-65.705l0 -15.363c-44.773,0 -81.068,36.295 -81.068,81.068l15.364 0z"/>
  <path fill="#9C86C9" d="M142.063 61.824c3.037,7.564 4.709,15.824 4.709,24.474 0,7.524 -1.265,14.752 -3.593,21.484l14.524 5.024c2.872,-8.306 4.433,-17.225 4.433,-26.508 0,-10.673 -2.063,-20.864 -5.811,-30.197l-14.262 5.723z"/>
  <path fill="#9DC183" d="M81.068 152.002c-36.288,0 -65.704,-29.417 -65.704,-65.704l-15.364 0c0,44.772 36.295,81.068 81.068,81.068 35.489,0 65.652,-22.805 76.635,-54.56l-14.524 -5.024c-8.901,25.737 -33.348,44.22 -62.111,44.22z"/>
  <path fill="#388B69" d="M81.068 31.452c30.29,0 54.846,24.555 54.846,54.846 0,30.29 -24.556,54.845 -54.846,54.845 -30.291,0 -54.846,-24.555 -54.846,-54.845 0,-30.291 24.555,-54.846 54.846,-54.846z"/>
 </g>
</svg>
