<svg xmlns="http://www.w3.org/2000/svg" viewBox="0 0 7723.57 558.608">
  <line stroke="#e3e3e3" stroke-width="14.78" stroke-miterlimit="23" x1="7.39" y1="0" x2="7.39" y2= "558.608" />
  <line stroke="#e3e3e3" stroke-width="14.78" stroke-miterlimit="23" x1="328.589" y1="0" x2="328.589" y2= "558.608" />
  <line stroke="#e3e3e3" stroke-width="14.78" stroke-miterlimit="23" x1="649.789" y1="0" x2="649.789" y2= "558.608" />
  <line stroke="#e3e3e3" stroke-width="14.78" stroke-miterlimit="23" x1="970.989" y1="0" x2="970.989" y2= "558.608" />
  <line stroke="#e3e3e3" stroke-width="14.78" stroke-miterlimit="23" x1="1292.188" y1="0" x2="1292.188" y2= "558.608" />
  <line stroke="#e3e3e3" stroke-width="14.78" stroke-miterlimit="23" x1="1613.388" y1="0" x2="1613.388" y2= "558.608" />
  <line stroke="#e3e3e3" stroke-width="14.78" stroke-miterlimit="23" x1="1934.587" y1="0" x2="1934.587" y2= "558.608" />
  <line stroke="#e3e3e3" stroke-width="14.78" stroke-miterlimit="23" x1="2255.787" y1="0" x2="2255.787" y2= "558.608" />
  <line stroke="#e3e3e3" stroke-width="14.78" stroke-miterlimit="23" x1="2576.987" y1="0" x2="2576.987" y2= "558.608" />
  <line stroke="#e3e3e3" stroke-width="14.78" stroke-miterlimit="23" x1="2898.186" y1="0" x2="2898.186" y2= "558.608" />
  <line stroke="#e3e3e3" stroke-width="14.78" stroke-miterlimit="23" x1="3219.386" y1="0" x2="3219.386" y2= "558.608" />
  <line stroke="#e3e3e3" stroke-width="14.78" stroke-miterlimit="23" x1="3540.585" y1="0" x2="3540.585" y2= "558.608" />
  <line stroke="#e3e3e3" stroke-width="14.78" stroke-miterlimit="23" x1="3861.785" y1="0" x2="3861.785" y2= "558.608" />
  <line stroke="#e3e3e3" stroke-width="14.78" stroke-miterlimit="23" x1="4182.984" y1="0" x2="4182.984" y2= "558.608" />
  <line stroke="#e3e3e3" stroke-width="14.78" stroke-miterlimit="23" x1="4504.184" y1="0" x2="4504.184" y2= "558.608" />
  <line stroke="#e3e3e3" stroke-width="14.78" stroke-miterlimit="23" x1="4825.384" y1="0" x2="4825.384" y2= "558.608" />
  <line stroke="#e3e3e3" stroke-width="14.78" stroke-miterlimit="23" x1="5146.583" y1="0" x2="5146.583" y2= "558.608" />
  <line stroke="#e3e3e3" stroke-width="14.78" stroke-miterlimit="23" x1="5467.783" y1="0" x2="5467.783" y2= "558.608" />
  <line stroke="#e3e3e3" stroke-width="14.78" stroke-miterlimit="23" x1="5788.982" y1="0" x2="5788.982" y2= "558.608" />
  <line stroke="#e3e3e3" stroke-width="14.78" stroke-miterlimit="23" x1="6110.182" y1="0" x2="6110.182" y2= "558.608" />
  <line stroke="#e3e3e3" stroke-width="14.78" stroke-miterlimit="23" x1="6431.382" y1="0" x2="6431.382" y2= "558.608" />
  <line stroke="#e3e3e3" stroke-width="14.78" stroke-miterlimit="23" x1="6752.581" y1="0" x2="6752.581" y2= "558.608" />
  <line stroke="#e3e3e3" stroke-width="14.78" stroke-miterlimit="23" x1="7073.781" y1="0" x2="7073.781" y2= "558.608" />
  <line stroke="#e3e3e3" stroke-width="14.78" stroke-miterlimit="23" x1="7394.98" y1="0" x2="7394.98" y2= "558.608" />
  <line stroke="#e3e3e3" stroke-width="14.78" stroke-miterlimit="23" x1="7716.18" y1="0" x2="7716.18" y2= "558.608" />
  <line stroke="#e3e3e3" stroke-width="7.39" stroke-miterlimit="23" x1="87.689" y1="0" x2="87.689" y2= "558.608" />
  <line stroke="#e3e3e3" stroke-width="7.39" stroke-miterlimit="23" x1="408.889" y1="0" x2="408.889" y2= "558.608" />
  <line stroke="#e3e3e3" stroke-width="7.39" stroke-miterlimit="23" x1="730.088" y1="0" x2="730.088" y2= "558.608" />
  <line stroke="#e3e3e3" stroke-width="7.39" stroke-miterlimit="23" x1="1051.288" y1="0" x2="1051.288" y2= "558.608" />
  <line stroke="#e3e3e3" stroke-width="7.39" stroke-miterlimit="23" x1="1372.488" y1="0" x2="1372.488" y2= "558.608" />
  <line stroke="#e3e3e3" stroke-width="7.39" stroke-miterlimit="23" x1="1693.687" y1="0" x2="1693.687" y2= "558.608" />
  <line stroke="#e3e3e3" stroke-width="7.39" stroke-miterlimit="23" x1="2014.887" y1="0" x2="2014.887" y2= "558.608" />
  <line stroke="#e3e3e3" stroke-width="7.39" stroke-miterlimit="23" x1="2336.086" y1="0" x2="2336.086" y2= "558.608" />
  <line stroke="#e3e3e3" stroke-width="7.39" stroke-miterlimit="23" x1="2657.286" y1="0" x2="2657.286" y2= "558.608" />
  <line stroke="#e3e3e3" stroke-width="7.39" stroke-miterlimit="23" x1="2978.485" y1="0" x2="2978.485" y2= "558.608" />
  <line stroke="#e3e3e3" stroke-width="7.39" stroke-miterlimit="23" x1="3299.685" y1="0" x2="3299.685" y2= "558.608" />
  <line stroke="#e3e3e3" stroke-width="7.39" stroke-miterlimit="23" x1="3620.885" y1="0" x2="3620.885" y2= "558.608" />
  <line stroke="#e3e3e3" stroke-width="7.39" stroke-miterlimit="23" x1="3942.084" y1="0" x2="3942.084" y2= "558.608" />
  <line stroke="#e3e3e3" stroke-width="7.39" stroke-miterlimit="23" x1="4263.284" y1="0" x2="4263.284" y2= "558.608" />
  <line stroke="#e3e3e3" stroke-width="7.39" stroke-miterlimit="23" x1="4584.483" y1="0" x2="4584.483" y2= "558.608" />
  <line stroke="#e3e3e3" stroke-width="7.39" stroke-miterlimit="23" x1="4905.683" y1="0" x2="4905.683" y2= "558.608" />
  <line stroke="#e3e3e3" stroke-width="7.39" stroke-miterlimit="23" x1="5226.883" y1="0" x2="5226.883" y2= "558.608" />
  <line stroke="#e3e3e3" stroke-width="7.39" stroke-miterlimit="23" x1="5548.082" y1="0" x2="5548.082" y2= "558.608" />
  <line stroke="#e3e3e3" stroke-width="7.39" stroke-miterlimit="23" x1="5869.282" y1="0" x2="5869.282" y2= "558.608" />
  <line stroke="#e3e3e3" stroke-width="7.39" stroke-miterlimit="23" x1="6190.481" y1="0" x2="6190.481" y2= "558.608" />
  <line stroke="#e3e3e3" stroke-width="7.39" stroke-miterlimit="23" x1="6511.681" y1="0" x2="6511.681" y2= "558.608" />
  <line stroke="#e3e3e3" stroke-width="7.39" stroke-miterlimit="23" x1="6832.881" y1="0" x2="6832.881" y2= "558.608" />
  <line stroke="#e3e3e3" stroke-width="7.39" stroke-miterlimit="23" x1="7154.08" y1="0" x2="7154.08" y2= "558.608" />
  <line stroke="#e3e3e3" stroke-width="7.39" stroke-miterlimit="23" x1="7475.28" y1="0" x2="7475.28" y2= "558.608" />
  <line stroke="#e3e3e3" stroke-width="11.085" stroke-miterlimit="23" x1="167.989" y1="0" x2="167.989" y2= "558.608" />
  <line stroke="#e3e3e3" stroke-width="11.085" stroke-miterlimit="23" x1="489.188" y1="0" x2="489.188" y2= "558.608" />
  <line stroke="#e3e3e3" stroke-width="11.085" stroke-miterlimit="23" x1="810.388" y1="0" x2="810.388" y2= "558.608" />
  <line stroke="#e3e3e3" stroke-width="11.085" stroke-miterlimit="23" x1="1131.587" y1="0" x2="1131.587" y2= "558.608" />
  <line stroke="#e3e3e3" stroke-width="11.085" stroke-miterlimit="23" x1="1452.787" y1="0" x2="1452.787" y2= "558.608" />
  <line stroke="#e3e3e3" stroke-width="11.085" stroke-miterlimit="23" x1="1773.986" y1="0" x2="1773.986" y2= "558.608" />
  <line stroke="#e3e3e3" stroke-width="11.085" stroke-miterlimit="23" x1="2095.186" y1="0" x2="2095.186" y2= "558.608" />
  <line stroke="#e3e3e3" stroke-width="11.085" stroke-miterlimit="23" x1="2416.386" y1="0" x2="2416.386" y2= "558.608" />
  <line stroke="#e3e3e3" stroke-width="11.085" stroke-miterlimit="23" x1="2737.585" y1="0" x2="2737.585" y2= "558.608" />
  <line stroke="#e3e3e3" stroke-width="11.085" stroke-miterlimit="23" x1="3058.785" y1="0" x2="3058.785" y2= "558.608" />
  <line stroke="#e3e3e3" stroke-width="11.085" stroke-miterlimit="23" x1="3379.984" y1="0" x2="3379.984" y2= "558.608" />
  <line stroke="#e3e3e3" stroke-width="11.085" stroke-miterlimit="23" x1="3701.184" y1="0" x2="3701.184" y2= "558.608" />
  <line stroke="#e3e3e3" stroke-width="11.085" stroke-miterlimit="23" x1="4022.384" y1="0" x2="4022.384" y2= "558.608" />
  <line stroke="#e3e3e3" stroke-width="11.085" stroke-miterlimit="23" x1="4343.583" y1="0" x2="4343.583" y2= "558.608" />
  <line stroke="#e3e3e3" stroke-width="11.085" stroke-miterlimit="23" x1="4664.783" y1="0" x2="4664.783" y2= "558.608" />
  <line stroke="#e3e3e3" stroke-width="11.085" stroke-miterlimit="23" x1="4985.982" y1="0" x2="4985.982" y2= "558.608" />
  <line stroke="#e3e3e3" stroke-width="11.085" stroke-miterlimit="23" x1="5307.182" y1="0" x2="5307.182" y2= "558.608" />
  <line stroke="#e3e3e3" stroke-width="11.085" stroke-miterlimit="23" x1="5628.382" y1="0" x2="5628.382" y2= "558.608" />
  <line stroke="#e3e3e3" stroke-width="11.085" stroke-miterlimit="23" x1="5949.581" y1="0" x2="5949.581" y2= "558.608" />
  <line stroke="#e3e3e3" stroke-width="11.085" stroke-miterlimit="23" x1="6270.781" y1="0" x2="6270.781" y2= "558.608" />
  <line stroke="#e3e3e3" stroke-width="11.085" stroke-miterlimit="23" x1="6591.98" y1="0" x2="6591.98" y2= "558.608" />
  <line stroke="#e3e3e3" stroke-width="11.085" stroke-miterlimit="23" x1="6913.18" y1="0" x2="6913.18" y2= "558.608" />
  <line stroke="#e3e3e3" stroke-width="11.085" stroke-miterlimit="23" x1="7234.379" y1="0" x2="7234.379" y2= "558.608" />
  <line stroke="#e3e3e3" stroke-width="11.085" stroke-miterlimit="23" x1="7555.579" y1="0" x2="7555.579" y2= "558.608" />
  <line stroke="#e3e3e3" stroke-width="7.39" stroke-miterlimit="23" x1="248.288" y1="0" x2="248.288" y2= "558.608" />
  <line stroke="#e3e3e3" stroke-width="7.39" stroke-miterlimit="23" x1="569.488" y1="0" x2="569.488" y2= "558.608" />
  <line stroke="#e3e3e3" stroke-width="7.39" stroke-miterlimit="23" x1="890.688" y1="0" x2="890.688" y2= "558.608" />
  <line stroke="#e3e3e3" stroke-width="7.39" stroke-miterlimit="23" x1="1211.887" y1="0" x2="1211.887" y2= "558.608" />
  <line stroke="#e3e3e3" stroke-width="7.39" stroke-miterlimit="23" x1="1533.087" y1="0" x2="1533.087" y2= "558.608" />
  <line stroke="#e3e3e3" stroke-width="7.39" stroke-miterlimit="23" x1="1854.286" y1="0" x2="1854.286" y2= "558.608" />
  <line stroke="#e3e3e3" stroke-width="7.39" stroke-miterlimit="23" x1="2175.486" y1="0" x2="2175.486" y2= "558.608" />
  <line stroke="#e3e3e3" stroke-width="7.39" stroke-miterlimit="23" x1="2496.686" y1="0" x2="2496.686" y2= "558.608" />
  <line stroke="#e3e3e3" stroke-width="7.39" stroke-miterlimit="23" x1="2817.885" y1="0" x2="2817.885" y2= "558.608" />
  <line stroke="#e3e3e3" stroke-width="7.39" stroke-miterlimit="23" x1="3139.085" y1="0" x2="3139.085" y2= "558.608" />
  <line stroke="#e3e3e3" stroke-width="7.39" stroke-miterlimit="23" x1="3460.284" y1="0" x2="3460.284" y2= "558.608" />
  <line stroke="#e3e3e3" stroke-width="7.39" stroke-miterlimit="23" x1="3781.484" y1="0" x2="3781.484" y2= "558.608" />
  <line stroke="#e3e3e3" stroke-width="7.39" stroke-miterlimit="23" x1="4102.683" y1="0" x2="4102.683" y2= "558.608" />
  <line stroke="#e3e3e3" stroke-width="7.39" stroke-miterlimit="23" x1="4423.883" y1="0" x2="4423.883" y2= "558.608" />
  <line stroke="#e3e3e3" stroke-width="7.39" stroke-miterlimit="23" x1="4745.083" y1="0" x2="4745.083" y2= "558.608" />
  <line stroke="#e3e3e3" stroke-width="7.39" stroke-miterlimit="23" x1="5066.282" y1="0" x2="5066.282" y2= "558.608" />
  <line stroke="#e3e3e3" stroke-width="7.39" stroke-miterlimit="23" x1="5387.482" y1="0" x2="5387.482" y2= "558.608" />
  <line stroke="#e3e3e3" stroke-width="7.39" stroke-miterlimit="23" x1="5708.681" y1="0" x2="5708.681" y2= "558.608" />
  <line stroke="#e3e3e3" stroke-width="7.39" stroke-miterlimit="23" x1="6029.881" y1="0" x2="6029.881" y2= "558.608" />
  <line stroke="#e3e3e3" stroke-width="7.39" stroke-miterlimit="23" x1="6351.081" y1="0" x2="6351.081" y2= "558.608" />
  <line stroke="#e3e3e3" stroke-width="7.39" stroke-miterlimit="23" x1="6672.28" y1="0" x2="6672.28" y2= "558.608" />
  <line stroke="#e3e3e3" stroke-width="7.39" stroke-miterlimit="23" x1="6993.48" y1="0" x2="6993.48" y2= "558.608" />
  <line stroke="#e3e3e3" stroke-width="7.39" stroke-miterlimit="23" x1="7314.679" y1="0" x2="7314.679" y2= "558.608" />
  <line stroke="#e3e3e3" stroke-width="7.39" stroke-miterlimit="23" x1="7635.879" y1="0" x2="7635.879" y2= "558.608" />
</svg>
