<svg width="55" height="48" viewBox="0 0 55 48" fill="none" xmlns="http://www.w3.org/2000/svg">
<path d="M3.4375 7.5C2.48827 7.5 1.71875 8.17158 1.71875 9C1.71875 9.82842 2.48827 10.5 3.4375 10.5V7.5ZM51.5625 10.5C52.5117 10.5 53.2812 9.82842 53.2812 9C53.2812 8.17158 52.5117 7.5 51.5625 7.5V10.5ZM3.4375 10.5H51.5625V7.5H3.4375V10.5Z" fill="#8b8b8b"/>
<path d="M17.1875 9C17.1875 9.82842 17.957 10.5 18.9062 10.5C19.8555 10.5 20.625 9.82842 20.625 9H17.1875ZM34.375 9C34.375 9.82842 35.1445 10.5 36.0938 10.5C37.043 10.5 37.8125 9.82842 37.8125 9H34.375ZM32.6563 1.5H22.3438V4.5H32.6563V1.5ZM22.3438 1.5C20.9762 1.5 19.6647 1.97411 18.6977 2.81802L21.1284 4.93934C21.4507 4.65804 21.8879 4.5 22.3438 4.5V1.5ZM18.6977 2.81802C17.7307 3.66194 17.1875 4.80652 17.1875 6H20.625C20.625 5.60218 20.8061 5.22064 21.1284 4.93934L18.6977 2.81802ZM17.1875 6V9H20.625V6H17.1875ZM37.8125 9V6H34.375V9H37.8125ZM37.8125 6C37.8125 4.80652 37.2691 3.66194 36.3023 2.81802L33.8715 4.93934C34.194 5.22064 34.375 5.60218 34.375 6H37.8125ZM36.3023 2.81802C35.3352 1.97411 34.0237 1.5 32.6563 1.5V4.5C33.1121 4.5 33.5493 4.65804 33.8715 4.93934L36.3023 2.81802Z" fill="#8b8b8b"/>
<path d="M20.625 34.5C20.625 35.3284 21.3945 36 22.3438 36C23.293 36 24.0625 35.3284 24.0625 34.5H20.625ZM24.0625 19.5C24.0625 18.6716 23.293 18 22.3438 18C21.3945 18 20.625 18.6716 20.625 19.5H24.0625ZM24.0625 34.5V19.5H20.625V34.5H24.0625Z" fill="#8b8b8b"/>
<path d="M30.9375 34.5C30.9375 35.3284 31.707 36 32.6562 36C33.6055 36 34.375 35.3284 34.375 34.5H30.9375ZM34.375 19.5C34.375 18.6716 33.6055 18 32.6562 18C31.707 18 30.9375 18.6716 30.9375 19.5H34.375ZM34.375 34.5V19.5H30.9375V34.5H34.375Z" fill="#8b8b8b"/>
<path d="M10.3065 8.87538C10.2277 8.0498 9.39689 7.43636 8.45094 7.50518C7.50496 7.57402 6.80206 8.29906 6.88091 9.12462L10.3065 8.87538ZM48.119 9.12454C48.1979 8.29898 47.495 7.57396 46.549 7.50518C45.603 7.4364 44.7723 8.0499 44.6934 8.87546L48.119 9.12454ZM41.5195 42.1234C41.4837 42.4984 41.2878 42.8488 40.9704 43.1036L43.2985 45.311C44.2505 44.5464 44.8383 43.4972 44.9451 42.372L41.5195 42.1234ZM40.9704 43.1036C40.6532 43.3586 40.2378 43.5 39.8065 43.5L39.806 46.5C41.0999 46.5 42.3465 46.0758 43.2985 45.311L40.9704 43.1036ZM39.8065 43.5H15.196V46.5H39.806L39.8065 43.5ZM15.196 43.5C14.7648 43.5 14.3491 43.3586 14.0317 43.1036L11.7038 45.311C12.6558 46.0758 13.9022 46.5 15.196 46.5V43.5ZM14.0317 43.1036C13.7144 42.8488 13.5185 42.499 13.4828 42.124L10.0571 42.372C10.1641 43.4972 10.7518 44.5464 11.7038 45.311L14.0317 43.1036ZM13.4828 42.124L10.3065 8.87538L6.88091 9.12462L10.0571 42.372L13.4828 42.124ZM44.6934 8.87546L41.5195 42.1234L44.9451 42.372L48.119 9.12454L44.6934 8.87546Z" fill="#8b8b8b"/>
</svg>
