<svg xmlns="http://www.w3.org/2000/svg" viewBox="0 0 7723.569 189.117">
  <line stroke="#e3e3e3" stroke-width="12" stroke-miterlimit="23" x1="8" y1="100.462" x2="8" y2= "189.117" />
  <line stroke="#e3e3e3" stroke-width="7" stroke-miterlimit="23" x1="87.69" y1="159.687" x2="87.69" y2= "189.117" />
  <line stroke="#e3e3e3" stroke-width="10" stroke-miterlimit="23" x1="167.99" y1="130.257" x2="167.99" y2= "189.117" />
  <line stroke="#e3e3e3" stroke-width="10" stroke-miterlimit="23" x1="489.189" y1="130.257" x2="489.189" y2= "189.117" />
  <line stroke="#e3e3e3" stroke-width="10" stroke-miterlimit="23" x1="810.389" y1="130.257" x2="810.389" y2= "189.117" />
  <line stroke="#e3e3e3" stroke-width="10" stroke-miterlimit="23" x1="1131.588" y1="130.257" x2="1131.588" y2= "189.117" />
  <line stroke="#e3e3e3" stroke-width="10" stroke-miterlimit="23" x1="1452.788" y1="130.257" x2="1452.788" y2= "189.117" />
  <line stroke="#e3e3e3" stroke-width="10" stroke-miterlimit="23" x1="1773.988" y1="130.257" x2="1773.988" y2= "189.117" />
  <line stroke="#e3e3e3" stroke-width="10" stroke-miterlimit="23" x1="2095.187" y1="130.257" x2="2095.187" y2= "189.117" />
  <line stroke="#e3e3e3" stroke-width="10" stroke-miterlimit="23" x1="2416.387" y1="130.257" x2="2416.387" y2= "189.117" />
  <line stroke="#e3e3e3" stroke-width="10" stroke-miterlimit="23" x1="2737.586" y1="130.257" x2="2737.586" y2= "189.117" />
  <line stroke="#e3e3e3" stroke-width="10" stroke-miterlimit="23" x1="3058.785" y1="130.257" x2="3058.785" y2= "189.117" />
  <line stroke="#e3e3e3" stroke-width="10" stroke-miterlimit="23" x1="3379.985" y1="130.257" x2="3379.985" y2= "189.117" />
  <line stroke="#e3e3e3" stroke-width="10" stroke-miterlimit="23" x1="3701.185" y1="130.257" x2="3701.185" y2= "189.117" />
  <line stroke="#e3e3e3" stroke-width="10" stroke-miterlimit="23" x1="4022.384" y1="130.257" x2="4022.384" y2= "189.117" />
  <line stroke="#e3e3e3" stroke-width="10" stroke-miterlimit="23" x1="4343.584" y1="130.257" x2="4343.584" y2= "189.117" />
  <line stroke="#e3e3e3" stroke-width="10" stroke-miterlimit="23" x1="4664.783" y1="130.257" x2="4664.783" y2= "189.117" />
  <line stroke="#e3e3e3" stroke-width="10" stroke-miterlimit="23" x1="4985.983" y1="130.257" x2="4985.983" y2= "189.117" />
  <line stroke="#e3e3e3" stroke-width="10" stroke-miterlimit="23" x1="5307.182" y1="130.257" x2="5307.182" y2= "189.117" />
  <line stroke="#e3e3e3" stroke-width="10" stroke-miterlimit="23" x1="5628.382" y1="130.257" x2="5628.382" y2= "189.117" />
  <line stroke="#e3e3e3" stroke-width="10" stroke-miterlimit="23" x1="5949.582" y1="130.257" x2="5949.582" y2= "189.117" />
  <line stroke="#e3e3e3" stroke-width="10" stroke-miterlimit="23" x1="6270.781" y1="130.257" x2="6270.781" y2= "189.117" />
  <line stroke="#e3e3e3" stroke-width="10" stroke-miterlimit="23" x1="6591.981" y1="130.257" x2="6591.981" y2= "189.117" />
  <line stroke="#e3e3e3" stroke-width="10" stroke-miterlimit="23" x1="6913.18" y1="130.257" x2="6913.18" y2= "189.117" />
  <line stroke="#e3e3e3" stroke-width="10" stroke-miterlimit="23" x1="7234.38" y1="130.257" x2="7234.38" y2= "189.117" />
  <line stroke="#e3e3e3" stroke-width="10" stroke-miterlimit="23" x1="7555.579" y1="130.257" x2="7555.579" y2= "189.117" />
  <line stroke="#e3e3e3" stroke-width="7" stroke-miterlimit="23" x1="248.29" y1="159.687" x2="248.29" y2= "189.117" />
  <line stroke="#e3e3e3" stroke-width="7" stroke-miterlimit="23" x1="569.489" y1="159.687" x2="569.489" y2= "189.117" />
  <line stroke="#e3e3e3" stroke-width="7" stroke-miterlimit="23" x1="890.689" y1="159.687" x2="890.689" y2= "189.117" />
  <line stroke="#e3e3e3" stroke-width="7" stroke-miterlimit="23" x1="1211.888" y1="159.687" x2="1211.888" y2= "189.117" />
  <line stroke="#e3e3e3" stroke-width="7" stroke-miterlimit="23" x1="1533.088" y1="159.687" x2="1533.088" y2= "189.117" />
  <line stroke="#e3e3e3" stroke-width="7" stroke-miterlimit="23" x1="1854.287" y1="159.687" x2="1854.287" y2= "189.117" />
  <line stroke="#e3e3e3" stroke-width="7" stroke-miterlimit="23" x1="2175.487" y1="159.687" x2="2175.487" y2= "189.117" />
  <line stroke="#e3e3e3" stroke-width="7" stroke-miterlimit="23" x1="2496.687" y1="159.687" x2="2496.687" y2= "189.117" />
  <line stroke="#e3e3e3" stroke-width="7" stroke-miterlimit="23" x1="2817.886" y1="159.687" x2="2817.886" y2= "189.117" />
  <line stroke="#e3e3e3" stroke-width="7" stroke-miterlimit="23" x1="3139.085" y1="159.687" x2="3139.085" y2= "189.117" />
  <line stroke="#e3e3e3" stroke-width="7" stroke-miterlimit="23" x1="3460.285" y1="159.687" x2="3460.285" y2= "189.117" />
  <line stroke="#e3e3e3" stroke-width="7" stroke-miterlimit="23" x1="3781.484" y1="159.687" x2="3781.484" y2= "189.117" />
  <line stroke="#e3e3e3" stroke-width="7" stroke-miterlimit="23" x1="4102.684" y1="159.687" x2="4102.684" y2= "189.117" />
  <line stroke="#e3e3e3" stroke-width="7" stroke-miterlimit="23" x1="4423.884" y1="159.687" x2="4423.884" y2= "189.117" />
  <line stroke="#e3e3e3" stroke-width="7" stroke-miterlimit="23" x1="4745.083" y1="159.687" x2="4745.083" y2= "189.117" />
  <line stroke="#e3e3e3" stroke-width="7" stroke-miterlimit="23" x1="5066.283" y1="159.687" x2="5066.283" y2= "189.117" />
  <line stroke="#e3e3e3" stroke-width="7" stroke-miterlimit="23" x1="5387.482" y1="159.687" x2="5387.482" y2= "189.117" />
  <line stroke="#e3e3e3" stroke-width="7" stroke-miterlimit="23" x1="5708.682" y1="159.687" x2="5708.682" y2= "189.117" />
  <line stroke="#e3e3e3" stroke-width="7" stroke-miterlimit="23" x1="6029.882" y1="159.687" x2="6029.882" y2= "189.117" />
  <line stroke="#e3e3e3" stroke-width="7" stroke-miterlimit="23" x1="6351.081" y1="159.687" x2="6351.081" y2= "189.117" />
  <line stroke="#e3e3e3" stroke-width="7" stroke-miterlimit="23" x1="6672.281" y1="159.687" x2="6672.281" y2= "189.117" />
  <line stroke="#e3e3e3" stroke-width="7" stroke-miterlimit="23" x1="6993.48" y1="159.687" x2="6993.48" y2= "189.117" />
  <line stroke="#e3e3e3" stroke-width="7" stroke-miterlimit="23" x1="7314.679" y1="159.687" x2="7314.679" y2= "189.117" />
  <line stroke="#e3e3e3" stroke-width="7" stroke-miterlimit="23" x1="7635.879" y1="159.687" x2="7635.879" y2= "189.117" />
  <line stroke="#e3e3e3" stroke-width="12" stroke-miterlimit="23" x1="328.589" y1="99.971" x2="328.589" y2= "189.117" />
  <line stroke="#e3e3e3" stroke-width="12" stroke-miterlimit="23" x1="649.789" y1="99.971" x2="649.789" y2= "189.117" />
  <line stroke="#e3e3e3" stroke-width="12" stroke-miterlimit="23" x1="970.989" y1="99.971" x2="970.989" y2= "189.117" />
  <line stroke="#e3e3e3" stroke-width="12" stroke-miterlimit="23" x1="1292.188" y1="99.971" x2="1292.188" y2= "189.117" />
  <line stroke="#e3e3e3" stroke-width="12" stroke-miterlimit="23" x1="1613.388" y1="99.971" x2="1613.388" y2= "189.117" />
  <line stroke="#e3e3e3" stroke-width="12" stroke-miterlimit="23" x1="1934.587" y1="99.971" x2="1934.587" y2= "189.117" />
  <line stroke="#e3e3e3" stroke-width="12" stroke-miterlimit="23" x1="2255.787" y1="99.971" x2="2255.787" y2= "189.117" />
  <line stroke="#e3e3e3" stroke-width="12" stroke-miterlimit="23" x1="2576.987" y1="99.971" x2="2576.987" y2= "189.117" />
  <line stroke="#e3e3e3" stroke-width="12" stroke-miterlimit="23" x1="2898.186" y1="99.971" x2="2898.186" y2= "189.117" />
  <line stroke="#e3e3e3" stroke-width="12" stroke-miterlimit="23" x1="3219.385" y1="99.971" x2="3219.385" y2= "189.117" />
  <line stroke="#e3e3e3" stroke-width="12" stroke-miterlimit="23" x1="3540.585" y1="99.971" x2="3540.585" y2= "189.117" />
  <line stroke="#e3e3e3" stroke-width="12" stroke-miterlimit="23" x1="3861.784" y1="99.971" x2="3861.784" y2= "189.117" />
  <line stroke="#e3e3e3" stroke-width="12" stroke-miterlimit="23" x1="4182.984" y1="99.971" x2="4182.984" y2= "189.117" />
  <line stroke="#e3e3e3" stroke-width="12" stroke-miterlimit="23" x1="4504.184" y1="99.971" x2="4504.184" y2= "189.117" />
  <line stroke="#e3e3e3" stroke-width="12" stroke-miterlimit="23" x1="4825.383" y1="99.971" x2="4825.383" y2= "189.117" />
  <line stroke="#e3e3e3" stroke-width="12" stroke-miterlimit="23" x1="5146.583" y1="99.971" x2="5146.583" y2= "189.117" />
  <line stroke="#e3e3e3" stroke-width="12" stroke-miterlimit="23" x1="5467.782" y1="99.971" x2="5467.782" y2= "189.117" />
  <line stroke="#e3e3e3" stroke-width="12" stroke-miterlimit="23" x1="5788.982" y1="99.971" x2="5788.982" y2= "189.117" />
  <line stroke="#e3e3e3" stroke-width="12" stroke-miterlimit="23" x1="6110.181" y1="99.971" x2="6110.181" y2= "189.117" />
  <line stroke="#e3e3e3" stroke-width="12" stroke-miterlimit="23" x1="6431.381" y1="99.971" x2="6431.381" y2= "189.117" />
  <line stroke="#e3e3e3" stroke-width="12" stroke-miterlimit="23" x1="6752.581" y1="99.971" x2="6752.581" y2= "189.117" />
  <line stroke="#e3e3e3" stroke-width="12" stroke-miterlimit="23" x1="7073.78" y1="99.971" x2="7073.78" y2= "189.117" />
  <line stroke="#e3e3e3" stroke-width="12" stroke-miterlimit="23" x1="7394.979" y1="99.971" x2="7394.979" y2= "189.117" />
  <line stroke="#e3e3e3" stroke-width="12" stroke-miterlimit="23" x1="7716.179" y1="99.971" x2="7716.179" y2= "189.117" />
  <line stroke="#e3e3e3" stroke-width="7" stroke-miterlimit="23" x1="408.889" y1="159.687" x2="408.889" y2= "189.117" />
  <line stroke="#e3e3e3" stroke-width="7" stroke-miterlimit="23" x1="730.089" y1="159.687" x2="730.089" y2= "189.117" />
  <line stroke="#e3e3e3" stroke-width="7" stroke-miterlimit="23" x1="1051.288" y1="159.687" x2="1051.288" y2= "189.117" />
  <line stroke="#e3e3e3" stroke-width="7" stroke-miterlimit="23" x1="1372.488" y1="159.687" x2="1372.488" y2= "189.117" />
  <line stroke="#e3e3e3" stroke-width="7" stroke-miterlimit="23" x1="1693.688" y1="159.687" x2="1693.688" y2= "189.117" />
  <line stroke="#e3e3e3" stroke-width="7" stroke-miterlimit="23" x1="2014.887" y1="159.687" x2="2014.887" y2= "189.117" />
  <line stroke="#e3e3e3" stroke-width="7" stroke-miterlimit="23" x1="2336.087" y1="159.687" x2="2336.087" y2= "189.117" />
  <line stroke="#e3e3e3" stroke-width="7" stroke-miterlimit="23" x1="2657.286" y1="159.687" x2="2657.286" y2= "189.117" />
  <line stroke="#e3e3e3" stroke-width="7" stroke-miterlimit="23" x1="2978.485" y1="159.687" x2="2978.485" y2= "189.117" />
  <line stroke="#e3e3e3" stroke-width="7" stroke-miterlimit="23" x1="3299.685" y1="159.687" x2="3299.685" y2= "189.117" />
  <line stroke="#e3e3e3" stroke-width="7" stroke-miterlimit="23" x1="3620.885" y1="159.687" x2="3620.885" y2= "189.117" />
  <line stroke="#e3e3e3" stroke-width="7" stroke-miterlimit="23" x1="3942.084" y1="159.687" x2="3942.084" y2= "189.117" />
  <line stroke="#e3e3e3" stroke-width="7" stroke-miterlimit="23" x1="4263.284" y1="159.687" x2="4263.284" y2= "189.117" />
  <line stroke="#e3e3e3" stroke-width="7" stroke-miterlimit="23" x1="4584.483" y1="159.687" x2="4584.483" y2= "189.117" />
  <line stroke="#e3e3e3" stroke-width="7" stroke-miterlimit="23" x1="4905.683" y1="159.687" x2="4905.683" y2= "189.117" />
  <line stroke="#e3e3e3" stroke-width="7" stroke-miterlimit="23" x1="5226.883" y1="159.687" x2="5226.883" y2= "189.117" />
  <line stroke="#e3e3e3" stroke-width="7" stroke-miterlimit="23" x1="5548.082" y1="159.687" x2="5548.082" y2= "189.117" />
  <line stroke="#e3e3e3" stroke-width="7" stroke-miterlimit="23" x1="5869.282" y1="159.687" x2="5869.282" y2= "189.117" />
  <line stroke="#e3e3e3" stroke-width="7" stroke-miterlimit="23" x1="6190.481" y1="159.687" x2="6190.481" y2= "189.117" />
  <line stroke="#e3e3e3" stroke-width="7" stroke-miterlimit="23" x1="6511.681" y1="159.687" x2="6511.681" y2= "189.117" />
  <line stroke="#e3e3e3" stroke-width="7" stroke-miterlimit="23" x1="6832.881" y1="159.687" x2="6832.881" y2= "189.117" />
  <line stroke="#e3e3e3" stroke-width="7" stroke-miterlimit="23" x1="7154.08" y1="159.687" x2="7154.08" y2= "189.117" />
  <line stroke="#e3e3e3" stroke-width="7" stroke-miterlimit="23" x1="7475.279" y1="159.687" x2="7475.279" y2= "189.117" />
  <text x="317.411" y="53.167"  fill="#e3e3e3" font-weight="600" font-size="74.883px" font-family="Montserrat">1</text>
  <text x="631.085" y="53.167"  fill="#e3e3e3" font-weight="600" font-size="74.883px" font-family="Montserrat">2</text>
  <text x="952.284" y="53.167"  fill="#e3e3e3" font-weight="600" font-size="74.883px" font-family="Montserrat">3</text>
  <text x="1269.852" y="53.167"  fill="#e3e3e3" font-weight="600" font-size="74.883px" font-family="Montserrat">4</text>
  <text x="1594.608" y="53.167"  fill="#e3e3e3" font-weight="600" font-size="74.883px" font-family="Montserrat">5</text>
  <text x="1914.198" y="53.167"  fill="#e3e3e3" font-weight="600" font-size="74.883px" font-family="Montserrat">6</text>
  <text x="2236.109" y="53.167"  fill="#e3e3e3" font-weight="600" font-size="74.883px" font-family="Montserrat">7</text>
  <text x="2555.661" y="53.167"  fill="#e3e3e3" font-weight="600" font-size="74.883px" font-family="Montserrat">8</text>
  <text x="2877.796" y="53.167"  fill="#e3e3e3" font-weight="600" font-size="74.883px" font-family="Montserrat">9</text>
  <text x="3183.009" y="53.167"  fill="#e3e3e3" font-weight="600" font-size="74.883px" font-family="Montserrat">1</text>
  <text x="3211.539" y="53.167"  fill="#e3e3e3" font-weight="600" font-size="74.883px" font-family="Montserrat">0</text>
  <text x="3515.141" y="53.167"  fill="#e3e3e3" font-weight="600" font-size="74.883px" font-family="Montserrat">1</text>
  <text x="3543.672" y="53.167"  fill="#e3e3e3" font-weight="600" font-size="74.883px" font-family="Montserrat">1</text>
  <text x="3828.815" y="53.167"  fill="#e3e3e3" font-weight="600" font-size="74.883px" font-family="Montserrat">1</text>
  <text x="3857.346" y="53.167"  fill="#e3e3e3" font-weight="600" font-size="74.883px" font-family="Montserrat">2</text>
  <text x="4150.015" y="53.167"  fill="#e3e3e3" font-weight="600" font-size="74.883px" font-family="Montserrat">1</text>
  <text x="4178.545" y="53.167"  fill="#e3e3e3" font-weight="600" font-size="74.883px" font-family="Montserrat">3</text>
  <text x="4467.582" y="53.167"  fill="#e3e3e3" font-weight="600" font-size="74.883px" font-family="Montserrat">1</text>
  <text x="4496.113" y="53.167"  fill="#e3e3e3" font-weight="600" font-size="74.883px" font-family="Montserrat">4</text>
  <text x="4792.339" y="53.167"  fill="#e3e3e3" font-weight="600" font-size="74.883px" font-family="Montserrat">1</text>
  <text x="4820.87" y="53.167"  fill="#e3e3e3" font-weight="600" font-size="74.883px" font-family="Montserrat">5</text>
  <text x="5111.928" y="53.167"  fill="#e3e3e3" font-weight="600" font-size="74.883px" font-family="Montserrat">1</text>
  <text x="5140.459" y="53.167"  fill="#e3e3e3" font-weight="600" font-size="74.883px" font-family="Montserrat">6</text>
  <text x="5433.84" y="53.167"  fill="#e3e3e3" font-weight="600" font-size="74.883px" font-family="Montserrat">1</text>
  <text x="5462.37" y="53.167"  fill="#e3e3e3" font-weight="600" font-size="74.883px" font-family="Montserrat">7</text>
  <text x="5753.392" y="53.167"  fill="#e3e3e3" font-weight="600" font-size="74.883px" font-family="Montserrat">1</text>
  <text x="5781.922" y="53.167"  fill="#e3e3e3" font-weight="600" font-size="74.883px" font-family="Montserrat">8</text>
  <text x="6075.527" y="53.167"  fill="#e3e3e3" font-weight="600" font-size="74.883px" font-family="Montserrat">1</text>
  <text x="6104.057" y="53.167"  fill="#e3e3e3" font-weight="600" font-size="74.883px" font-family="Montserrat">9</text>
  <text x="6387.591" y="53.167"  fill="#e3e3e3" font-weight="600" font-size="74.883px" font-family="Montserrat">20</text>
  <text x="6719.612" y="53.167"  fill="#e3e3e3" font-weight="600" font-size="74.883px" font-family="Montserrat">2</text>
  <text x="6763.193" y="53.167"  fill="#e3e3e3" font-weight="600" font-size="74.883px" font-family="Montserrat">1</text>
  <text x="7033.286" y="53.167"  fill="#e3e3e3" font-weight="600" font-size="74.883px" font-family="Montserrat">22</text>
  <text x="7354.485" y="53.167"  fill="#e3e3e3" font-weight="600" font-size="74.883px" font-family="Montserrat">23</text>
  <text x="7630.739" y="53.167"  fill="#e3e3e3" font-weight="600" font-size="74.883px" font-family="Montserrat">24</text>
  <text x="-2.898" y="53.167"  fill="#e3e3e3" font-weight="600" font-size="74.883px" font-family="Montserrat">0</text>

</svg>
