<svg xmlns="http://www.w3.org/2000/svg" xml:space="preserve" width="5216px" height="378px" version="1.1" shape-rendering="geometricPrecision" text-rendering="geometricPrecision" image-rendering="optimizeQuality" fill-rule="evenodd" clip-rule="evenodd"
viewBox="0 0 7715.861 559.12">
<g>
  <metadata id="CorelCorpID_0Corel-Layer"/>
  <line stroke="#e3e3e3" stroke-width="12" stroke-miterlimit="22.9256" x1="321.492" y1="0" x2="321.492" y2= "559.12" />
  <line stroke="#e3e3e3" stroke-width="12" stroke-miterlimit="22.9256" x1="642.984" y1="0" x2="642.984" y2= "559.12" />
  <line stroke="#e3e3e3" stroke-width="12" stroke-miterlimit="22.9256" x1="964.476" y1="0" x2="964.476" y2= "559.12" />
  <line stroke="#e3e3e3" stroke-width="12" stroke-miterlimit="22.9256" x1="1285.968" y1="0" x2="1285.968" y2= "559.12" />
  <line stroke="#e3e3e3" stroke-width="12" stroke-miterlimit="22.9256" x1="1607.46" y1="0" x2="1607.46" y2= "559.12" />
  <line stroke="#e3e3e3" stroke-width="12" stroke-miterlimit="22.9256" x1="1928.952" y1="0" x2="1928.952" y2= "559.12" />
  <line stroke="#e3e3e3" stroke-width="12" stroke-miterlimit="22.9256" x1="2250.444" y1="0" x2="2250.444" y2= "559.12" />
  <line stroke="#e3e3e3" stroke-width="12" stroke-miterlimit="22.9256" x1="2571.936" y1="0" x2="2571.936" y2= "559.12" />
  <line stroke="#e3e3e3" stroke-width="12" stroke-miterlimit="22.9256" x1="2893.428" y1="0" x2="2893.428" y2= "559.12" />
  <line stroke="#e3e3e3" stroke-width="12" stroke-miterlimit="22.9256" x1="3214.92" y1="0" x2="3214.92" y2= "559.12" />
  <line stroke="#e3e3e3" stroke-width="12" stroke-miterlimit="22.9256" x1="3536.411" y1="0" x2="3536.411" y2= "559.12" />
  <line stroke="#e3e3e3" stroke-width="12" stroke-miterlimit="22.9256" x1="3857.903" y1="0" x2="3857.903" y2= "559.12" />
  <line stroke="#e3e3e3" stroke-width="12" stroke-miterlimit="22.9256" x1="4179.395" y1="0" x2="4179.395" y2= "559.12" />
  <line stroke="#e3e3e3" stroke-width="12" stroke-miterlimit="22.9256" x1="4500.887" y1="0" x2="4500.887" y2= "559.12" />
  <line stroke="#e3e3e3" stroke-width="12" stroke-miterlimit="22.9256" x1="4822.379" y1="0" x2="4822.379" y2= "559.12" />
  <line stroke="#e3e3e3" stroke-width="12" stroke-miterlimit="22.9256" x1="5143.871" y1="0" x2="5143.871" y2= "559.12" />
  <line stroke="#e3e3e3" stroke-width="12" stroke-miterlimit="22.9256" x1="5465.363" y1="0" x2="5465.363" y2= "559.12" />
  <line stroke="#e3e3e3" stroke-width="12" stroke-miterlimit="22.9256" x1="5786.855" y1="0" x2="5786.855" y2= "559.12" />
  <line stroke="#e3e3e3" stroke-width="12" stroke-miterlimit="22.9256" x1="6108.347" y1="0" x2="6108.347" y2= "559.12" />
  <line stroke="#e3e3e3" stroke-width="12" stroke-miterlimit="22.9256" x1="6429.839" y1="0" x2="6429.839" y2= "559.12" />
  <line stroke="#e3e3e3" stroke-width="12" stroke-miterlimit="22.9256" x1="6751.331" y1="0" x2="6751.331" y2= "559.12" />
  <line stroke="#e3e3e3" stroke-width="12" stroke-miterlimit="22.9256" x1="7072.823" y1="0" x2="7072.823" y2= "559.12" />
  <line stroke="#e3e3e3" stroke-width="12" stroke-miterlimit="22.9256" x1="7394.315" y1="0" x2="7394.315" y2= "559.12" />
  <line stroke="#eeeeee" stroke-width="7" stroke-miterlimit="22.9256" x1="80.373" y1="0" x2="80.373" y2= "559.12" />
  <line stroke="#eeeeee" stroke-width="7" stroke-miterlimit="22.9256" x1="401.865" y1="0" x2="401.865" y2= "559.12" />
  <line stroke="#eeeeee" stroke-width="7" stroke-miterlimit="22.9256" x1="723.357" y1="0" x2="723.357" y2= "559.12" />
  <line stroke="#eeeeee" stroke-width="7" stroke-miterlimit="22.9256" x1="1044.849" y1="0" x2="1044.849" y2= "559.12" />
  <line stroke="#eeeeee" stroke-width="7" stroke-miterlimit="22.9256" x1="1366.341" y1="0" x2="1366.341" y2= "559.12" />
  <line stroke="#eeeeee" stroke-width="7" stroke-miterlimit="22.9256" x1="1687.833" y1="0" x2="1687.833" y2= "559.12" />
  <line stroke="#eeeeee" stroke-width="7" stroke-miterlimit="22.9256" x1="2009.325" y1="0" x2="2009.325" y2= "559.12" />
  <line stroke="#eeeeee" stroke-width="7" stroke-miterlimit="22.9256" x1="2330.817" y1="0" x2="2330.817" y2= "559.12" />
  <line stroke="#eeeeee" stroke-width="7" stroke-miterlimit="22.9256" x1="2652.309" y1="0" x2="2652.309" y2= "559.12" />
  <line stroke="#eeeeee" stroke-width="7" stroke-miterlimit="22.9256" x1="2973.801" y1="0" x2="2973.801" y2= "559.12" />
  <line stroke="#eeeeee" stroke-width="7" stroke-miterlimit="22.9256" x1="3295.293" y1="0" x2="3295.293" y2= "559.12" />
  <line stroke="#eeeeee" stroke-width="7" stroke-miterlimit="22.9256" x1="3616.784" y1="0" x2="3616.784" y2= "559.12" />
  <line stroke="#eeeeee" stroke-width="7" stroke-miterlimit="22.9256" x1="3938.276" y1="0" x2="3938.276" y2= "559.12" />
  <line stroke="#eeeeee" stroke-width="7" stroke-miterlimit="22.9256" x1="4259.768" y1="0" x2="4259.768" y2= "559.12" />
  <line stroke="#eeeeee" stroke-width="7" stroke-miterlimit="22.9256" x1="4581.26" y1="0" x2="4581.26" y2= "559.12" />
  <line stroke="#eeeeee" stroke-width="7" stroke-miterlimit="22.9256" x1="4902.752" y1="0" x2="4902.752" y2= "559.12" />
  <line stroke="#eeeeee" stroke-width="7" stroke-miterlimit="22.9256" x1="5224.244" y1="0" x2="5224.244" y2= "559.12" />
  <line stroke="#eeeeee" stroke-width="7" stroke-miterlimit="22.9256" x1="5545.736" y1="0" x2="5545.736" y2= "559.12" />
  <line stroke="#eeeeee" stroke-width="7" stroke-miterlimit="22.9256" x1="5867.228" y1="0" x2="5867.228" y2= "559.12" />
  <line stroke="#eeeeee" stroke-width="7" stroke-miterlimit="22.9256" x1="6188.72" y1="0" x2="6188.72" y2= "559.12" />
  <line stroke="#eeeeee" stroke-width="7" stroke-miterlimit="22.9256" x1="6510.212" y1="0" x2="6510.212" y2= "559.12" />
  <line stroke="#eeeeee" stroke-width="7" stroke-miterlimit="22.9256" x1="6831.704" y1="0" x2="6831.704" y2= "559.12" />
  <line stroke="#eeeeee" stroke-width="7" stroke-miterlimit="22.9256" x1="7153.196" y1="0" x2="7153.196" y2= "559.12" />
  <line stroke="#eeeeee" stroke-width="7" stroke-miterlimit="22.9256" x1="7474.688" y1="0" x2="7474.688" y2= "559.12" />
  <line stroke="#e3e3e3" stroke-width="10" stroke-miterlimit="22.9256" x1="160.746" y1="0" x2="160.746" y2= "559.12" />
  <line stroke="#e3e3e3" stroke-width="10" stroke-miterlimit="22.9256" x1="482.238" y1="0" x2="482.238" y2= "559.12" />
  <line stroke="#e3e3e3" stroke-width="10" stroke-miterlimit="22.9256" x1="803.73" y1="0" x2="803.73" y2= "559.12" />
  <line stroke="#e3e3e3" stroke-width="10" stroke-miterlimit="22.9256" x1="1125.222" y1="0" x2="1125.222" y2= "559.12" />
  <line stroke="#e3e3e3" stroke-width="10" stroke-miterlimit="22.9256" x1="1446.714" y1="0" x2="1446.714" y2= "559.12" />
  <line stroke="#e3e3e3" stroke-width="10" stroke-miterlimit="22.9256" x1="1768.206" y1="0" x2="1768.206" y2= "559.12" />
  <line stroke="#e3e3e3" stroke-width="10" stroke-miterlimit="22.9256" x1="2089.698" y1="0" x2="2089.698" y2= "559.12" />
  <line stroke="#e3e3e3" stroke-width="10" stroke-miterlimit="22.9256" x1="2411.19" y1="0" x2="2411.19" y2= "559.12" />
  <line stroke="#e3e3e3" stroke-width="10" stroke-miterlimit="22.9256" x1="2732.682" y1="0" x2="2732.682" y2= "559.12" />
  <line stroke="#e3e3e3" stroke-width="10" stroke-miterlimit="22.9256" x1="3054.174" y1="0" x2="3054.174" y2= "559.12" />
  <line stroke="#e3e3e3" stroke-width="10" stroke-miterlimit="22.9256" x1="3375.666" y1="0" x2="3375.666" y2= "559.12" />
  <line stroke="#e3e3e3" stroke-width="10" stroke-miterlimit="22.9256" x1="3697.157" y1="0" x2="3697.157" y2= "559.12" />
  <line stroke="#e3e3e3" stroke-width="10" stroke-miterlimit="22.9256" x1="4018.649" y1="0" x2="4018.649" y2= "559.12" />
  <line stroke="#e3e3e3" stroke-width="10" stroke-miterlimit="22.9256" x1="4340.141" y1="0" x2="4340.141" y2= "559.12" />
  <line stroke="#e3e3e3" stroke-width="10" stroke-miterlimit="22.9256" x1="4661.633" y1="0" x2="4661.633" y2= "559.12" />
  <line stroke="#e3e3e3" stroke-width="10" stroke-miterlimit="22.9256" x1="4983.125" y1="0" x2="4983.125" y2= "559.12" />
  <line stroke="#e3e3e3" stroke-width="10" stroke-miterlimit="22.9256" x1="5304.617" y1="0" x2="5304.617" y2= "559.12" />
  <line stroke="#e3e3e3" stroke-width="10" stroke-miterlimit="22.9256" x1="5626.109" y1="0" x2="5626.109" y2= "559.12" />
  <line stroke="#e3e3e3" stroke-width="10" stroke-miterlimit="22.9256" x1="5947.601" y1="0" x2="5947.601" y2= "559.12" />
  <line stroke="#e3e3e3" stroke-width="10" stroke-miterlimit="22.9256" x1="6269.093" y1="0" x2="6269.093" y2= "559.12" />
  <line stroke="#e3e3e3" stroke-width="10" stroke-miterlimit="22.9256" x1="6590.585" y1="0" x2="6590.585" y2= "559.12" />
  <line stroke="#e3e3e3" stroke-width="10" stroke-miterlimit="22.9256" x1="6912.077" y1="0" x2="6912.077" y2= "559.12" />
  <line stroke="#e3e3e3" stroke-width="10" stroke-miterlimit="22.9256" x1="7233.569" y1="0" x2="7233.569" y2= "559.12" />
  <line stroke="#e3e3e3" stroke-width="10" stroke-miterlimit="22.9256" x1="7555.061" y1="0" x2="7555.061" y2= "559.12" />
  <line stroke="#eeeeee" stroke-width="7" stroke-miterlimit="22.9256" x1="241.119" y1="0" x2="241.119" y2= "559.12" />
  <line stroke="#eeeeee" stroke-width="7" stroke-miterlimit="22.9256" x1="562.611" y1="0" x2="562.611" y2= "559.12" />
  <line stroke="#eeeeee" stroke-width="7" stroke-miterlimit="22.9256" x1="884.103" y1="0" x2="884.103" y2= "559.12" />
  <line stroke="#eeeeee" stroke-width="7" stroke-miterlimit="22.9256" x1="1205.595" y1="0" x2="1205.595" y2= "559.12" />
  <line stroke="#eeeeee" stroke-width="7" stroke-miterlimit="22.9256" x1="1527.087" y1="0" x2="1527.087" y2= "559.12" />
  <line stroke="#eeeeee" stroke-width="7" stroke-miterlimit="22.9256" x1="1848.579" y1="0" x2="1848.579" y2= "559.12" />
  <line stroke="#eeeeee" stroke-width="7" stroke-miterlimit="22.9256" x1="2170.071" y1="0" x2="2170.071" y2= "559.12" />
  <line stroke="#eeeeee" stroke-width="7" stroke-miterlimit="22.9256" x1="2491.563" y1="0" x2="2491.563" y2= "559.12" />
  <line stroke="#eeeeee" stroke-width="7" stroke-miterlimit="22.9256" x1="2813.055" y1="0" x2="2813.055" y2= "559.12" />
  <line stroke="#eeeeee" stroke-width="7" stroke-miterlimit="22.9256" x1="3134.547" y1="0" x2="3134.547" y2= "559.12" />
  <line stroke="#eeeeee" stroke-width="7" stroke-miterlimit="22.9256" x1="3456.038" y1="0" x2="3456.038" y2= "559.12" />
  <line stroke="#eeeeee" stroke-width="7" stroke-miterlimit="22.9256" x1="3777.53" y1="0" x2="3777.53" y2= "559.12" />
  <line stroke="#eeeeee" stroke-width="7" stroke-miterlimit="22.9256" x1="4099.022" y1="0" x2="4099.022" y2= "559.12" />
  <line stroke="#eeeeee" stroke-width="7" stroke-miterlimit="22.9256" x1="4420.514" y1="0" x2="4420.514" y2= "559.12" />
  <line stroke="#eeeeee" stroke-width="7" stroke-miterlimit="22.9256" x1="4742.006" y1="0" x2="4742.006" y2= "559.12" />
  <line stroke="#eeeeee" stroke-width="7" stroke-miterlimit="22.9256" x1="5063.498" y1="0" x2="5063.498" y2= "559.12" />
  <line stroke="#eeeeee" stroke-width="7" stroke-miterlimit="22.9256" x1="5384.99" y1="0" x2="5384.99" y2= "559.12" />
  <line stroke="#eeeeee" stroke-width="7" stroke-miterlimit="22.9256" x1="5706.482" y1="0" x2="5706.482" y2= "559.12" />
  <line stroke="#eeeeee" stroke-width="7" stroke-miterlimit="22.9256" x1="6027.974" y1="0" x2="6027.974" y2= "559.12" />
  <line stroke="#eeeeee" stroke-width="7" stroke-miterlimit="22.9256" x1="6349.466" y1="0" x2="6349.466" y2= "559.12" />
  <line stroke="#eeeeee" stroke-width="7" stroke-miterlimit="22.9256" x1="6670.958" y1="0" x2="6670.958" y2= "559.12" />
  <line stroke="#eeeeee" stroke-width="7" stroke-miterlimit="22.9256" x1="6992.45" y1="0" x2="6992.45" y2= "559.12" />
  <line stroke="#eeeeee" stroke-width="7" stroke-miterlimit="22.9256" x1="7313.942" y1="0" x2="7313.942" y2= "559.12" />
  <line stroke="#eeeeee" stroke-width="7" stroke-miterlimit="22.9256" x1="7635.486" y1="0" x2="7635.486" y2= "559.12" />
</g>
</svg>
