<svg width="55" height="48" fill="none" xmlns="http://www.w3.org/2000/svg"><path d="M3.438 7.5c-.95 0-1.72.672-1.72 1.5s.77 1.5 1.72 1.5v-3Zm48.124 3c.95 0 1.72-.672 1.72-1.5s-.77-1.5-1.72-1.5v3Zm-48.124 0h48.124v-3H3.438v3Z" fill="#8b8b8b"/><path d="M17.188 9c0 .828.769 1.5 1.718 1.5.95 0 1.719-.672 1.719-1.5h-3.438Zm17.187 0c0 .828.77 1.5 1.719 1.5.949 0 1.718-.672 1.718-1.5h-3.437Zm-1.719-7.5H22.344v3h10.312v-3Zm-10.312 0c-1.368 0-2.68.474-3.646 1.318l2.43 2.121c.323-.281.76-.439 1.216-.439v-3Zm-3.646 1.318c-.967.844-1.51 1.989-1.51 3.182h3.437c0-.398.181-.78.503-1.06l-2.43-2.122ZM17.188 6v3h3.437V6h-3.438Zm20.625 3V6h-3.438v3h3.438Zm0-3c0-1.193-.544-2.338-1.51-3.182l-2.431 2.121c.322.282.503.663.503 1.061h3.438Zm-1.51-3.182c-.968-.844-2.28-1.318-3.647-1.318v3c.456 0 .893.158 1.215.44l2.431-2.122ZM20.625 34.5c0 .828.77 1.5 1.719 1.5.949 0 1.718-.672 1.718-1.5h-3.437Zm3.438-15c0-.828-.77-1.5-1.72-1.5-.948 0-1.718.672-1.718 1.5h3.438Zm0 15v-15h-3.438v15h3.438Zm6.875 0c0 .828.769 1.5 1.718 1.5.95 0 1.719-.672 1.719-1.5h-3.438Zm3.437-15c0-.828-.77-1.5-1.719-1.5-.949 0-1.718.672-1.718 1.5h3.437Zm0 15v-15h-3.438v15h3.438ZM10.306 8.875c-.078-.825-.91-1.439-1.855-1.37-.946.069-1.649.794-1.57 1.62l3.425-.25Zm37.813.25c.079-.826-.624-1.551-1.57-1.62-.946-.069-1.777.545-1.856 1.37l3.426.25Zm-6.6 32.998a1.439 1.439 0 0 1-.549.98l2.328 2.208c.953-.765 1.54-1.814 1.647-2.939l-3.425-.249Zm-.549.98a1.863 1.863 0 0 1-1.163.397l-.001 3c1.294 0 2.54-.424 3.492-1.189l-2.328-2.207Zm-1.163.397H15.195v3h24.61v-3Zm-24.611 0c-.431 0-.847-.141-1.164-.396l-2.328 2.207c.952.765 2.198 1.189 3.492 1.189v-3Zm-1.164-.396a1.437 1.437 0 0 1-.55-.98l-3.425.248c.107 1.125.695 2.174 1.647 2.939l2.328-2.207Zm-.55-.98L10.308 8.875l-3.426.25 3.176 33.247 3.426-.248ZM44.694 8.875 41.52 42.123l3.425.249L48.12 9.125l-3.426-.25Z" fill="#8b8b8b"/></svg>