<svg xmlns="http://www.w3.org/2000/svg" viewBox="0 0 48 48"><text x="22.685" y="1.989" fill="#909090" font-weight="600" font-size="2.5" font-family="Montserrat SemiBold">12</text><text x="-51.067" y="1.927" fill="#909090" font-weight="600" font-size="2.5" font-family="Montserrat SemiBold" transform="rotate(-30 -12.918 -114.197)">11</text><text x="-50.951" y="1.927" fill="#909090" font-weight="600" font-size="2.5" font-family="Montserrat SemiBold" transform="rotate(120 -13.051 45.325)">4</text><text x="-50.815" y="1.927" fill="#909090" font-weight="600" font-size="2.5" font-family="Montserrat SemiBold" transform="rotate(90 -13.064 60.97)">3</text><text x="-50.815" y="1.927" fill="#909090" font-weight="600" font-size="2.5" font-family="Montserrat SemiBold" transform="rotate(60 -13.086 88.069)">2</text><text x="-50.534" y="1.927" fill="#909090" font-weight="600" font-size="2.5" font-family="Montserrat SemiBold" transform="rotate(30 -13.148 162.103)">1</text><circle fill="#909090" cx="18.138" cy="1.973" r=".334"/><text x="-51.476" y="1.927" fill="#909090" font-weight="600" font-size="2.5" font-family="Montserrat SemiBold" transform="rotate(-60 -12.98 -40.162)">10</text><text x="-50.878" y="1.927" fill="#909090" font-weight="600" font-size="2.5" font-family="Montserrat SemiBold" transform="rotate(-90 -13.002 -13.064)">9</text><text x="-50.913" y="1.927" fill="#909090" font-weight="600" font-size="2.5" font-family="Montserrat SemiBold" transform="rotate(-120 -13.015 2.581)">8</text><circle fill="#909090" transform="rotate(-30 18.597 -10.85) scale(.79577)" r=".42"/><circle fill="#909090" transform="rotate(-60 16.624 7.29) scale(.79577)" r=".42"/><circle fill="#909090" transform="matrix(0 -.79577 .79577 0 1.973 29.83)" r=".42"/><text x="-50.852" y="1.927" fill="#909090" font-weight="600" font-size="2.5" font-family="Montserrat SemiBold" transform="rotate(-150 -13.025 14.034)">7</text><text x="-50.878" y="1.927" fill="#909090" font-weight="600" font-size="2.5" font-family="Montserrat SemiBold" transform="rotate(180 -13.033 23.953)">6</text><text x="-50.818" y="1.927" fill="#909090" font-weight="600" font-size="2.5" font-family="Montserrat SemiBold" transform="rotate(150 -13.041 33.872)">5</text><circle fill="#909090" transform="rotate(-120 15.484 17.761) scale(.79577)" r=".42"/><circle fill="#909090" transform="rotate(-150 15.18 20.567) scale(.79577)" r=".42"/><circle fill="#909090" cx="29.83" cy="45.995" r=".334"/><circle fill="#909090" transform="rotate(150 14.65 25.427) scale(.79577)" r=".42"/><circle fill="#909090" transform="rotate(120 14.345 28.233) scale(.79577)" r=".42"/><circle fill="#909090" transform="rotate(90 13.928 32.066) scale(.79577)" r=".42"/><circle fill="#909090" transform="rotate(60 13.206 38.706) scale(.79577)" r=".42"/><circle fill="#909090" transform="rotate(30 11.233 56.844) scale(.79577)" r=".42"/></svg>