<svg xmlns="http://www.w3.org/2000/svg" viewBox="0 0 162.474 167.366"><path fill="#388B69" d="M146.886 59.889c.279.641.552 1.285.813 1.935l9.383-3.765a79.922 79.922 0 0 0-.757-1.958l6.149-2.467C148.924 22.091 117.576 0 81.068 0v20.593c27.637 0 51.289 17.064 60.995 41.231l4.823-1.935z"/><path fill="#FECE3D" d="M15.364 86.298c0-36.288 29.416-65.705 65.704-65.705V5.23C36.295 5.23 0 41.525 0 86.298h15.364z"/><path fill="#9C86C9" d="M142.063 61.824a65.54 65.54 0 0 1 4.709 24.474 65.615 65.615 0 0 1-3.593 21.484l14.524 5.024a80.97 80.97 0 0 0 4.433-26.508c0-10.673-2.063-20.864-5.811-30.197l-14.262 5.723z"/><path fill="#9DC183" d="M81.068 152.002c-36.288 0-65.704-29.417-65.704-65.704H0c0 44.772 36.295 81.068 81.068 81.068 35.489 0 65.652-22.805 76.635-54.56l-14.524-5.024c-8.901 25.737-33.348 44.22-62.111 44.22z"/><path fill="#388B69" d="M81.068 31.452c30.29 0 54.846 24.555 54.846 54.846 0 30.29-24.556 54.845-54.846 54.845-30.291 0-54.846-24.555-54.846-54.845 0-30.291 24.555-54.846 54.846-54.846z"/></svg>