<svg xmlns="http://www.w3.org/2000/svg" viewBox="0 0 7723.57 558.608"><path stroke="#e3e3e3" stroke-width="14.78" stroke-miterlimit="23" d="M7.39 0v558.608M328.589 0v558.608M649.789 0v558.608M970.989 0v558.608M1292.188 0v558.608M1613.388 0v558.608M1934.587 0v558.608M2255.787 0v558.608M2576.987 0v558.608M2898.186 0v558.608M3219.386 0v558.608M3540.585 0v558.608M3861.785 0v558.608M4182.984 0v558.608M4504.184 0v558.608M4825.384 0v558.608M5146.583 0v558.608M5467.783 0v558.608M5788.982 0v558.608M6110.182 0v558.608M6431.382 0v558.608M6752.581 0v558.608M7073.781 0v558.608M7394.98 0v558.608M7716.18 0v558.608"/><path stroke="#e3e3e3" stroke-width="7.39" stroke-miterlimit="23" d="M87.689 0v558.608M408.889 0v558.608M730.088 0v558.608M1051.288 0v558.608M1372.488 0v558.608M1693.687 0v558.608M2014.887 0v558.608M2336.086 0v558.608M2657.286 0v558.608M2978.485 0v558.608M3299.685 0v558.608M3620.885 0v558.608M3942.084 0v558.608M4263.284 0v558.608M4584.483 0v558.608M4905.683 0v558.608M5226.883 0v558.608M5548.082 0v558.608M5869.282 0v558.608M6190.481 0v558.608M6511.681 0v558.608M6832.881 0v558.608M7154.08 0v558.608M7475.28 0v558.608"/><path stroke="#e3e3e3" stroke-width="11.085" stroke-miterlimit="23" d="M167.989 0v558.608M489.188 0v558.608M810.388 0v558.608M1131.587 0v558.608M1452.787 0v558.608M1773.986 0v558.608M2095.186 0v558.608M2416.386 0v558.608M2737.585 0v558.608M3058.785 0v558.608M3379.984 0v558.608M3701.184 0v558.608M4022.384 0v558.608M4343.583 0v558.608M4664.783 0v558.608M4985.982 0v558.608M5307.182 0v558.608M5628.382 0v558.608M5949.581 0v558.608M6270.781 0v558.608M6591.98 0v558.608M6913.18 0v558.608M7234.379 0v558.608M7555.579 0v558.608"/><path stroke="#e3e3e3" stroke-width="7.39" stroke-miterlimit="23" d="M248.288 0v558.608M569.488 0v558.608M890.688 0v558.608M1211.887 0v558.608M1533.087 0v558.608M1854.286 0v558.608M2175.486 0v558.608M2496.686 0v558.608M2817.885 0v558.608M3139.085 0v558.608M3460.284 0v558.608M3781.484 0v558.608M4102.683 0v558.608M4423.883 0v558.608M4745.083 0v558.608M5066.282 0v558.608M5387.482 0v558.608M5708.681 0v558.608M6029.881 0v558.608M6351.081 0v558.608M6672.28 0v558.608M6993.48 0v558.608M7314.679 0v558.608M7635.879 0v558.608"/></svg>