<svg xmlns="http://www.w3.org/2000/svg" xml:space="preserve" width="5216" height="378" shape-rendering="geometricPrecision" text-rendering="geometricPrecision" image-rendering="optimizeQuality" fill-rule="evenodd" clip-rule="evenodd" viewBox="0 0 7715.861 559.12"><g stroke-miterlimit="22.926"><path stroke="#e3e3e3" stroke-width="12" d="M321.492 0v559.12M642.984 0v559.12M964.476 0v559.12M1285.968 0v559.12M1607.46 0v559.12M1928.952 0v559.12M2250.444 0v559.12M2571.936 0v559.12M2893.428 0v559.12M3214.92 0v559.12M3536.411 0v559.12M3857.903 0v559.12M4179.395 0v559.12M4500.887 0v559.12M4822.379 0v559.12M5143.871 0v559.12M5465.363 0v559.12M5786.855 0v559.12M6108.347 0v559.12M6429.839 0v559.12M6751.331 0v559.12M7072.823 0v559.12M7394.315 0v559.12"/><path stroke="#eee" stroke-width="7" d="M80.373 0v559.12M401.865 0v559.12M723.357 0v559.12M1044.849 0v559.12M1366.341 0v559.12M1687.833 0v559.12M2009.325 0v559.12M2330.817 0v559.12M2652.309 0v559.12M2973.801 0v559.12M3295.293 0v559.12M3616.784 0v559.12M3938.276 0v559.12M4259.768 0v559.12M4581.26 0v559.12M4902.752 0v559.12M5224.244 0v559.12M5545.736 0v559.12M5867.228 0v559.12M6188.72 0v559.12M6510.212 0v559.12M6831.704 0v559.12M7153.196 0v559.12M7474.688 0v559.12"/><path stroke="#e3e3e3" stroke-width="10" d="M160.746 0v559.12M482.238 0v559.12M803.73 0v559.12M1125.222 0v559.12M1446.714 0v559.12M1768.206 0v559.12M2089.698 0v559.12M2411.19 0v559.12M2732.682 0v559.12M3054.174 0v559.12M3375.666 0v559.12M3697.157 0v559.12M4018.649 0v559.12M4340.141 0v559.12M4661.633 0v559.12M4983.125 0v559.12M5304.617 0v559.12M5626.109 0v559.12M5947.601 0v559.12M6269.093 0v559.12M6590.585 0v559.12M6912.077 0v559.12M7233.569 0v559.12M7555.061 0v559.12"/><path stroke="#eee" stroke-width="7" d="M241.119 0v559.12M562.611 0v559.12M884.103 0v559.12M1205.595 0v559.12M1527.087 0v559.12M1848.579 0v559.12M2170.071 0v559.12M2491.563 0v559.12M2813.055 0v559.12M3134.547 0v559.12M3456.038 0v559.12M3777.53 0v559.12M4099.022 0v559.12M4420.514 0v559.12M4742.006 0v559.12M5063.498 0v559.12M5384.99 0v559.12M5706.482 0v559.12M6027.974 0v559.12M6349.466 0v559.12M6670.958 0v559.12M6992.45 0v559.12M7313.942 0v559.12M7635.486 0v559.12"/></g></svg>