<svg xmlns="http://www.w3.org/2000/svg" viewBox="0 0 7723.569 189.117"><path stroke="#e3e3e3" stroke-width="12" stroke-miterlimit="23" d="M8 100.462v88.655"/><path stroke="#e3e3e3" stroke-width="7" stroke-miterlimit="23" d="M87.69 159.687v29.43"/><path stroke="#e3e3e3" stroke-width="10" stroke-miterlimit="23" d="M167.99 130.257v58.86m321.199-58.86v58.86m321.2-58.86v58.86m321.199-58.86v58.86m321.2-58.86v58.86m321.2-58.86v58.86m321.199-58.86v58.86m321.2-58.86v58.86m321.199-58.86v58.86m321.199-58.86v58.86m321.2-58.86v58.86m321.2-58.86v58.86m321.199-58.86v58.86m321.2-58.86v58.86m321.199-58.86v58.86m321.2-58.86v58.86m321.199-58.86v58.86m321.2-58.86v58.86m321.2-58.86v58.86m321.199-58.86v58.86m321.2-58.86v58.86m321.199-58.86v58.86m321.2-58.86v58.86m321.199-58.86v58.86"/><path stroke="#e3e3e3" stroke-width="7" stroke-miterlimit="23" d="M248.29 159.687v29.43m321.199-29.43v29.43m321.2-29.43v29.43m321.199-29.43v29.43m321.2-29.43v29.43m321.199-29.43v29.43m321.2-29.43v29.43m321.2-29.43v29.43m321.199-29.43v29.43m321.199-29.43v29.43m321.2-29.43v29.43m321.199-29.43v29.43m321.2-29.43v29.43m321.2-29.43v29.43m321.199-29.43v29.43m321.2-29.43v29.43m321.199-29.43v29.43m321.2-29.43v29.43m321.2-29.43v29.43m321.199-29.43v29.43m321.2-29.43v29.43m321.199-29.43v29.43m321.199-29.43v29.43m321.2-29.43v29.43"/><path stroke="#e3e3e3" stroke-width="12" stroke-miterlimit="23" d="M328.589 99.971v89.146m321.2-89.146v89.146m321.2-89.146v89.146m321.199-89.146v89.146m321.2-89.146v89.146m321.199-89.146v89.146m321.2-89.146v89.146m321.2-89.146v89.146m321.199-89.146v89.146m321.199-89.146v89.146m321.2-89.146v89.146m321.199-89.146v89.146m321.2-89.146v89.146m321.2-89.146v89.146m321.199-89.146v89.146m321.2-89.146v89.146m321.199-89.146v89.146m321.2-89.146v89.146m321.199-89.146v89.146m321.2-89.146v89.146m321.2-89.146v89.146m321.199-89.146v89.146m321.199-89.146v89.146m321.2-89.146v89.146"/><path stroke="#e3e3e3" stroke-width="7" stroke-miterlimit="23" d="M408.889 159.687v29.43m321.2-29.43v29.43m321.199-29.43v29.43m321.2-29.43v29.43m321.2-29.43v29.43m321.199-29.43v29.43m321.2-29.43v29.43m321.199-29.43v29.43m321.199-29.43v29.43m321.2-29.43v29.43m321.2-29.43v29.43m321.199-29.43v29.43m321.2-29.43v29.43m321.199-29.43v29.43m321.2-29.43v29.43m321.2-29.43v29.43m321.199-29.43v29.43m321.2-29.43v29.43m321.199-29.43v29.43m321.2-29.43v29.43m321.2-29.43v29.43m321.199-29.43v29.43m321.199-29.43v29.43"/><text x="317.411" y="53.167" fill="#e3e3e3" font-weight="600" font-size="74.883" font-family="Montserrat">1</text><text x="631.085" y="53.167" fill="#e3e3e3" font-weight="600" font-size="74.883" font-family="Montserrat">2</text><text x="952.284" y="53.167" fill="#e3e3e3" font-weight="600" font-size="74.883" font-family="Montserrat">3</text><text x="1269.852" y="53.167" fill="#e3e3e3" font-weight="600" font-size="74.883" font-family="Montserrat">4</text><text x="1594.608" y="53.167" fill="#e3e3e3" font-weight="600" font-size="74.883" font-family="Montserrat">5</text><text x="1914.198" y="53.167" fill="#e3e3e3" font-weight="600" font-size="74.883" font-family="Montserrat">6</text><text x="2236.109" y="53.167" fill="#e3e3e3" font-weight="600" font-size="74.883" font-family="Montserrat">7</text><text x="2555.661" y="53.167" fill="#e3e3e3" font-weight="600" font-size="74.883" font-family="Montserrat">8</text><text x="2877.796" y="53.167" fill="#e3e3e3" font-weight="600" font-size="74.883" font-family="Montserrat">9</text><text x="3183.009" y="53.167" fill="#e3e3e3" font-weight="600" font-size="74.883" font-family="Montserrat">1</text><text x="3211.539" y="53.167" fill="#e3e3e3" font-weight="600" font-size="74.883" font-family="Montserrat">0</text><text x="3515.141" y="53.167" fill="#e3e3e3" font-weight="600" font-size="74.883" font-family="Montserrat">1</text><text x="3543.672" y="53.167" fill="#e3e3e3" font-weight="600" font-size="74.883" font-family="Montserrat">1</text><text x="3828.815" y="53.167" fill="#e3e3e3" font-weight="600" font-size="74.883" font-family="Montserrat">1</text><text x="3857.346" y="53.167" fill="#e3e3e3" font-weight="600" font-size="74.883" font-family="Montserrat">2</text><text x="4150.015" y="53.167" fill="#e3e3e3" font-weight="600" font-size="74.883" font-family="Montserrat">1</text><text x="4178.545" y="53.167" fill="#e3e3e3" font-weight="600" font-size="74.883" font-family="Montserrat">3</text><text x="4467.582" y="53.167" fill="#e3e3e3" font-weight="600" font-size="74.883" font-family="Montserrat">1</text><text x="4496.113" y="53.167" fill="#e3e3e3" font-weight="600" font-size="74.883" font-family="Montserrat">4</text><text x="4792.339" y="53.167" fill="#e3e3e3" font-weight="600" font-size="74.883" font-family="Montserrat">1</text><text x="4820.87" y="53.167" fill="#e3e3e3" font-weight="600" font-size="74.883" font-family="Montserrat">5</text><text x="5111.928" y="53.167" fill="#e3e3e3" font-weight="600" font-size="74.883" font-family="Montserrat">1</text><text x="5140.459" y="53.167" fill="#e3e3e3" font-weight="600" font-size="74.883" font-family="Montserrat">6</text><text x="5433.84" y="53.167" fill="#e3e3e3" font-weight="600" font-size="74.883" font-family="Montserrat">1</text><text x="5462.37" y="53.167" fill="#e3e3e3" font-weight="600" font-size="74.883" font-family="Montserrat">7</text><text x="5753.392" y="53.167" fill="#e3e3e3" font-weight="600" font-size="74.883" font-family="Montserrat">1</text><text x="5781.922" y="53.167" fill="#e3e3e3" font-weight="600" font-size="74.883" font-family="Montserrat">8</text><text x="6075.527" y="53.167" fill="#e3e3e3" font-weight="600" font-size="74.883" font-family="Montserrat">1</text><text x="6104.057" y="53.167" fill="#e3e3e3" font-weight="600" font-size="74.883" font-family="Montserrat">9</text><text x="6387.591" y="53.167" fill="#e3e3e3" font-weight="600" font-size="74.883" font-family="Montserrat">20</text><text x="6719.612" y="53.167" fill="#e3e3e3" font-weight="600" font-size="74.883" font-family="Montserrat">2</text><text x="6763.193" y="53.167" fill="#e3e3e3" font-weight="600" font-size="74.883" font-family="Montserrat">1</text><text x="7033.286" y="53.167" fill="#e3e3e3" font-weight="600" font-size="74.883" font-family="Montserrat">22</text><text x="7354.485" y="53.167" fill="#e3e3e3" font-weight="600" font-size="74.883" font-family="Montserrat">23</text><text x="7630.739" y="53.167" fill="#e3e3e3" font-weight="600" font-size="74.883" font-family="Montserrat">24</text><text x="-2.898" y="53.167" fill="#e3e3e3" font-weight="600" font-size="74.883" font-family="Montserrat">0</text></svg>